<?xml version="1.0" encoding="UTF-8" standalone="no"?>
<!-- Created with Inkscape (http://www.inkscape.org/) -->

<svg
   version="1.1"
   id="svg1"
   width="1024"
   height="1024"
   viewBox="0 0 1024 1024"
   sodipodi:docname="icon.svg"
   inkscape:version="1.4.2 (ebf0e940, 2025-05-08)"
   inkscape:export-filename="icon128.png"
   inkscape:export-xdpi="12"
   inkscape:export-ydpi="12"
   xmlns:inkscape="http://www.inkscape.org/namespaces/inkscape"
   xmlns:sodipodi="http://sodipodi.sourceforge.net/DTD/sodipodi-0.dtd"
   xmlns="http://www.w3.org/2000/svg"
   xmlns:svg="http://www.w3.org/2000/svg">
  <defs
     id="defs1" />
  <sodipodi:namedview
     id="namedview1"
     pagecolor="#ffffff"
     bordercolor="#000000"
     borderopacity="0.25"
     inkscape:showpageshadow="2"
     inkscape:pageopacity="0.0"
     inkscape:pagecheckerboard="0"
     inkscape:deskcolor="#d1d1d1"
     showgrid="true"
     inkscape:zoom="0.8125"
     inkscape:cx="512"
     inkscape:cy="512.61538"
     inkscape:window-width="1696"
     inkscape:window-height="942"
     inkscape:window-x="97"
     inkscape:window-y="36"
     inkscape:window-maximized="0"
     inkscape:current-layer="layer4"
     inkscape:export-bgcolor="#ffffff00">
    <inkscape:grid
       id="grid3178"
       units="px"
       originx="0"
       originy="0"
       spacingx="1"
       spacingy="1"
       empcolor="#0099e5"
       empopacity="0.30196078"
       color="#0099e5"
       opacity="0.14901961"
       empspacing="5"
       enabled="true"
       visible="true" />
  </sodipodi:namedview>
  <g
     inkscape:groupmode="layer"
     id="layer4"
     inkscape:label="Icon">
    <path
       d="m 349.96742,179.0583 c -61.19952,8.03934 -116.8765,27.24202 -166.45549,65.15017 -28.86146,22.06748 -52.28014,49.73127 -72.12829,79.97897 -18.683798,28.47328 -31.36322,62.15913 -38.026079,95.46712 -8.952884,44.75604 -9.389463,90.02865 1.271168,134.63313 36.064461,150.8951 185.116271,254.87421 338.983441,234.64182 65.51104,-8.61426 132.10679,-41.19719 177.32929,-89.71571 9.78394,-10.49709 19.08436,-20.95717 27.86444,-32.32386 2.92881,-3.79164 9.03803,-9.44572 8.6865,-14.68726 -0.32286,-4.81402 -6.20157,-8.87226 -9.1285,-12.23937 -7.51711,-8.64758 -14.51747,-18.10567 -20.03542,-28.15056 -18.77517,-34.17852 -33.41505,-74.04949 -30.32271,-113.80825 2.95661,-38.014 10.57717,-73.68135 32.0689,-106.1331 8.48389,-12.81032 17.99317,-25.07592 28.95518,-35.84454 3.89323,-3.82458 12.38004,-8.58272 12.39147,-14.70525 0.0123,-6.45079 -6.14111,-13.12746 -9.24279,-18.35811 C 622.16398,306.07482 610.41359,291.24056 597.54747,276.45389 540.59038,210.99482 437.21831,167.59674 349.96742,179.0583 m -7.34362,382.57302 h -97.915 c -13.95659,0 -31.63595,3.12714 -44.05701,-4.30642 -10.26625,-6.14398 -13.44991,-16.22592 -13.46804,-27.51595 v -77.10807 c 0,-14.50305 -0.51515,-28.04814 13.46331,-36.72471 11.40325,-7.07804 29.93906,-3.66523 42.8378,-3.66523 h 99.13894 c 0,-18.91724 -3.3758,-41.4824 0.63464,-59.97294 4.12641,-19.02533 25.23209,-28.5739 42.20317,-18.93046 10.31737,5.86263 18.60842,16.73195 26.92663,25.05015 l 50.18143,50.18143 42.8378,42.83782 c 9.91135,9.91135 19.70171,18.05741 19.57733,33.04631 -0.11126,13.40415 -9.4686,21.7131 -18.35339,30.59844 l -41.61387,41.61388 c -16.55326,16.55326 -33.31501,32.93961 -49.47788,49.87455 -9.33536,9.78117 -18.32772,22.08644 -30.07805,29.09114 -15.74034,9.38324 -37.73454,2.14077 -42.18617,-16.54488 -4.16059,-17.46405 -0.65164,-39.57747 -0.65164,-57.52506"
       style="opacity:0.800614;fill:#16abdb;fill-opacity:1;fill-rule:evenodd;stroke:none;stroke-width:1.08705"
       id="path1"
       sodipodi:nodetypes="cssssssssssssssssccsscssscssscsscssssc"
       inkscape:label="arrow-path" />
    <path
       d="m 775.4492,314.25663 c -30.14088,1.08909 -60.14782,6.86275 -86.89956,21.4774 -27.13932,14.82634 -51.07123,34.17596 -68.81721,59.79917 -54.93412,79.31853 -26.16835,198.77917 39.44271,253.76114 42.07924,35.26233 99.35556,39.05828 151.76825,34.52527 62.89298,-5.43941 115.03889,-59.40265 136.38879,-118.1591 4.98614,-13.72231 7.83186,-27.14962 9.60824,-41.61389 0.72359,-5.89154 2.55993,-14.1859 -1.25703,-19.40168 -6.44682,-8.80938 -31.56913,-5.59954 -34.82552,4.71541 -3.24346,10.27415 -2.91617,22.3518 -5.73818,33.04534 -5.43481,20.59449 -17.18361,40.3127 -31.09424,56.30112 -55.6323,63.94177 -157.68803,67.40247 -216.17324,4.89485 -48.91566,-52.27999 -55.41597,-131.46047 -13.21014,-189.69148 48.88727,-67.44923 160.53854,-86.05099 219.69483,-20.12034 7.83869,8.73632 -19.40589,17.12901 -11.42906,30.8865 3.68205,6.35037 11.56973,5.05771 17.79998,5.13182 15.25373,0.18137 33.94088,6.22516 48.9084,1.9124 5.88355,-1.69533 7.47183,-7.32085 7.27086,-12.82304 -0.52238,-14.30447 -1.74625,-28.62664 -2.37421,-42.94732 -0.23226,-5.29676 -0.73403,-12.70298 -5.26875,-16.22658 -11.46642,-8.90964 -19.86447,10.27857 -27.04278,6.38503 -10.31628,-5.59557 -18.68035,-16.02496 -28.83715,-22.36711 -28.68812,-17.91361 -63.56169,-30.72618 -97.91499,-29.48491 m -6.11402,79.51619 c -15.87347,4.03606 -9.79716,35.92701 -9.79716,48.27 v 42.83781 c 0,6.16003 -1.32375,14.08231 2.31662,19.45547 7.55509,11.15118 28.80711,17.52457 40.52118,23.38235 8.31118,4.15611 20.79879,14.81312 30.59373,11.14109 8.69126,-3.25826 11.20129,-14.81837 5.32543,-21.83351 -11.86033,-14.15999 -38.58427,-14.13528 -49.86789,-28.87595 -3.77983,-4.93795 -1.96246,-14.53365 -1.96246,-20.40458 v -52.6293 c 0,-10.89323 -2.08652,-25.16826 -17.12945,-21.34338"
       style="opacity:0.800614;fill:#000000;fill-opacity:0.48837209;fill-rule:evenodd;stroke:none;stroke-width:1.08705"
       id="path1-3"
       inkscape:transform-center-y="5.3516509"
       sodipodi:nodetypes="csssssssssssssssssssssccsssssssssc"
       inkscape:label="clock-path"
       inkscape:transform-center-x="2.0596347e-06" />
  </g>
</svg>
